<svg viewBox="0 0 40 40" xmlns="http://www.w3.org/2000/svg">
<path fill-rule="evenodd" clip-rule="evenodd" d="M35 6H5C4.44772 6 4 6.44772 4 7V33C4 33.5523 4.44772 34 5 34H35C35.5523 34 36 33.5523 36 33V7C36 6.44771 35.5523 6 35 6ZM5 4C3.34315 4 2 5.34315 2 7V33C2 34.6569 3.34315 36 5 36H35C36.6569 36 38 34.6569 38 33V7C38 5.34315 36.6569 4 35 4H5Z"/>
<path fill-rule="evenodd" clip-rule="evenodd" d="M7.3598 11.7681L8.64017 10.2317L20 19.6982L31.3598 10.2317L32.6402 11.7681L20 22.3016L7.3598 11.7681Z"/>
</svg>
