<svg viewBox="0 0 40 40" xmlns="http://www.w3.org/2000/svg">
<path fill-rule="evenodd" clip-rule="evenodd" d="M20 4.33325C11.3475 4.33325 4.33331 11.3475 4.33331 19.9999C4.33331 28.6524 11.3475 35.6666 20 35.6666C28.6524 35.6666 35.6666 28.6524 35.6666 19.9999C35.6666 11.3475 28.6524 4.33325 20 4.33325ZM2.33331 19.9999C2.33331 10.2429 10.2429 2.33325 20 2.33325C29.757 2.33325 37.6666 10.2429 37.6666 19.9999C37.6666 29.7569 29.757 37.6666 20 37.6666C10.2429 37.6666 2.33331 29.7569 2.33331 19.9999Z"/>
<path fill-rule="evenodd" clip-rule="evenodd" d="M12.3333 5C12.3333 4.44772 12.781 4 13.3333 4H15C15.3215 4 15.6235 4.15461 15.8114 4.4155C15.9993 4.67639 16.0504 5.01173 15.9485 5.31672C12.7672 14.8445 12.7672 25.1555 15.9485 34.6833C16.0504 34.9883 15.9993 35.3236 15.8114 35.5845C15.6235 35.8454 15.3215 36 15 36H13.3333C12.781 36 12.3333 35.5523 12.3333 35C12.3333 34.4477 12.781 34 13.3333 34H13.6326C10.8725 24.8732 10.8725 15.1268 13.6326 6H13.3333C12.781 6 12.3333 5.55228 12.3333 5Z"/>
<path fill-rule="evenodd" clip-rule="evenodd" d="M24.6833 4.05151C25.2072 3.87659 25.7736 4.15946 25.9485 4.68331C29.2672 14.6222 29.2672 25.3778 25.9485 35.3167C25.7736 35.8406 25.2072 36.1235 24.6833 35.9485C24.1595 35.7736 23.8766 35.2072 24.0515 34.6833C27.2329 25.1555 27.2329 14.8445 24.0515 5.31674C23.8766 4.79289 24.1595 4.22642 24.6833 4.05151Z"/>
<path fill-rule="evenodd" clip-rule="evenodd" d="M4.4155 24.1886C4.67639 24.0007 5.01173 23.9497 5.31672 24.0515C14.8445 27.2328 25.1555 27.2328 34.6833 24.0515C34.9883 23.9497 35.3236 24.0007 35.5845 24.1886C35.8454 24.3766 36 24.6785 36 25V26.6667C36 27.219 35.5523 27.6667 35 27.6667C34.4477 27.6667 34 27.219 34 26.6667V26.3674C24.8732 29.1276 15.1268 29.1276 6 26.3674V26.6667C6 27.219 5.55228 27.6667 5 27.6667C4.44772 27.6667 4 27.219 4 26.6667V25C4 24.6785 4.15461 24.3766 4.4155 24.1886Z"/>
<path fill-rule="evenodd" clip-rule="evenodd" d="M34.6833 15.9485C25.1555 12.7672 14.8445 12.7672 5.31674 15.9485C4.79289 16.1234 4.22642 15.8406 4.05151 15.3167C3.87659 14.7929 4.15946 14.2264 4.68331 14.0515C14.6222 10.7328 25.3778 10.7328 35.3167 14.0515C35.8406 14.2264 36.1235 14.7929 35.9485 15.3167C35.7736 15.8406 35.2072 16.1234 34.6833 15.9485Z"/>
</svg>
