<svg viewBox="0 0 30 34" xmlns="http://www.w3.org/2000/svg">
<path d="M15 0.333496C14.1159 0.333496 13.2681 0.684685 12.643 1.30981C12.0179 1.93493 11.6667 2.78277 11.6667 3.66683C11.6667 4.55088 12.0179 5.39873 12.643 6.02385C13.2681 6.64897 14.1159 7.00016 15 7.00016C15.8841 7.00016 16.7319 6.64897 17.357 6.02385C17.9821 5.39873 18.3333 4.55088 18.3333 3.66683C18.3333 2.78277 17.9821 1.93493 17.357 1.30981C16.7319 0.684685 15.8841 0.333496 15 0.333496ZM3.33333 7.00016C2.44928 7.00016 1.60143 7.35135 0.976311 7.97647C0.351189 8.60159 0 9.44944 0 10.3335C0 11.2176 0.351189 12.0654 0.976311 12.6905C1.60143 13.3156 2.44928 13.6668 3.33333 13.6668C4.21739 13.6668 5.06523 13.3156 5.69036 12.6905C6.31548 12.0654 6.66667 11.2176 6.66667 10.3335C6.66667 9.44944 6.31548 8.60159 5.69036 7.97647C5.06523 7.35135 4.21739 7.00016 3.33333 7.00016ZM26.6667 7.00016C25.7826 7.00016 24.9348 7.35135 24.3096 7.97647C23.6845 8.60159 23.3333 9.44944 23.3333 10.3335C23.3333 11.2176 23.6845 12.0654 24.3096 12.6905C24.9348 13.3156 25.7826 13.6668 26.6667 13.6668C27.5507 13.6668 28.3986 13.3156 29.0237 12.6905C29.6488 12.0654 30 11.2176 30 10.3335C30 9.44944 29.6488 8.60159 29.0237 7.97647C28.3986 7.35135 27.5507 7.00016 26.6667 7.00016ZM15 10.3335C14.1159 10.3335 13.2681 10.6847 12.643 11.3098C12.0179 11.9349 11.6667 12.7828 11.6667 13.6668C11.6667 14.5509 12.0179 15.3987 12.643 16.0239C13.2681 16.649 14.1159 17.0002 15 17.0002C15.8841 17.0002 16.7319 16.649 17.357 16.0239C17.9821 15.3987 18.3333 14.5509 18.3333 13.6668C18.3333 12.7828 17.9821 11.9349 17.357 11.3098C16.7319 10.6847 15.8841 10.3335 15 10.3335ZM15 18.6668C12.775 18.6668 10 19.8681 10 22.0848V22.8335C10 23.2935 10.3733 23.6668 10.8333 23.6668H19.1667C19.6267 23.6668 20 23.2935 20 22.8335V22.0848C20 19.8681 17.225 18.6668 15 18.6668ZM3.33333 20.3335C2.44928 20.3335 1.60143 20.6847 0.976311 21.3098C0.351189 21.9349 0 22.7828 0 23.6668C0 24.5509 0.351189 25.3987 0.976311 26.0239C1.60143 26.649 2.44928 27.0002 3.33333 27.0002C4.21739 27.0002 5.06523 26.649 5.69036 26.0239C6.31548 25.3987 6.66667 24.5509 6.66667 23.6668C6.66667 22.7828 6.31548 21.9349 5.69036 21.3098C5.06523 20.6847 4.21739 20.3335 3.33333 20.3335ZM26.6667 20.3335C25.7826 20.3335 24.9348 20.6847 24.3096 21.3098C23.6845 21.9349 23.3333 22.7828 23.3333 23.6668C23.3333 24.5509 23.6845 25.3987 24.3096 26.0239C24.9348 26.649 25.7826 27.0002 26.6667 27.0002C27.5507 27.0002 28.3986 26.649 29.0237 26.0239C29.6488 25.3987 30 24.5509 30 23.6668C30 22.7828 29.6488 21.9349 29.0237 21.3098C28.3986 20.6847 27.5507 20.3335 26.6667 20.3335ZM15 27.0002C14.1159 27.0002 13.2681 27.3514 12.643 27.9765C12.0179 28.6016 11.6667 29.4494 11.6667 30.3335C11.6667 31.2176 12.0179 32.0654 12.643 32.6905C13.2681 33.3156 14.1159 33.6668 15 33.6668C15.8841 33.6668 16.7319 33.3156 17.357 32.6905C17.9821 32.0654 18.3333 31.2176 18.3333 30.3335C18.3333 29.4494 17.9821 28.6016 17.357 27.9765C16.7319 27.3514 15.8841 27.0002 15 27.0002Z"/>
</svg>
